#!OML:ASF H:\Punching\Project 1\Capture day 1\Session 1\female.ASF
:FULLY-SPECIFIED
:DEGREES
253
root -0.108502 14.9405 -1.84039 7.80426 -0.387013 -0.673128
lowerback 2.92519 -0.699474 0.374461
upperback -5.96114 -0.950189 -0.485138
thorax -7.89139 -0.508493 -0.626229
lowerneck -12.3735 2.79152 9.59718
upperneck 28.656 2.28298 -2.31132
head 11.55 1.78321 -2.19153
rclavicle 7.83957e-015 -2.98177e-015
rhumerus 31.553 11.0298 -62.0558
rradius 65.7203
rwrist 0.159162
rhand 30.6955 -35.2729
rfingers 7.12502
rthumb 54.3311 -53.8846
lclavicle 7.83957e-015 -2.98177e-015
lhumerus 27.5384 -10.0448 56.7953
lradius 79.7649
lwrist -9.04016
lhand 35.8545 25.6459
lfingers 7.12502
lthumb 58.8791 40.5515
rfemur -26.1879 -5.1469 16.6169
rtibia 49.6457
rfoot -27.8746 -8.86545
rtoes -12.6417
lfemur -27.3565 1.35018 -16.8931
ltibia 49.7987
lfoot -25.2382 9.52165
ltoes -12.698
254
root -0.107647 14.94 -1.83947 7.80112 -0.389554 -0.673242
lowerback 2.93429 -0.705561 0.378087
upperback -5.95733 -0.956603 -0.463373
thorax -7.89235 -0.511091 -0.604702
lowerneck -12.4338 2.69617 9.50305
upperneck 28.5911 2.15637 -2.29337
head 11.5253 1.71585 -2.18536
rclavicle -1.04486e-014 -6.16232e-015
rhumerus 31.5794 11.0719 -62.0145
rradius 65.7098
rwrist 0.162011
rhand 30.6897 -35.2583
rfingers 7.12502
rthumb 54.3259 -53.8736
lclavicle -1.04486e-014 -6.16232e-015
lhumerus 27.5162 -10.0323 56.8079
lradius 79.7713
lwrist -9.04743
lhand 35.8899 25.6563
lfingers 7.12502
lthumb 58.9097 40.5324
rfemur -26.1886 -5.17303 16.6246
rtibia 49.6662
rfoot -27.8622 -8.91455
rtoes -12.8921
lfemur -27.361 1.34954 -16.8954
ltibia 49.8213
lfoot -25.2426 9.50149
ltoes -12.6908
255
root -0.106657 14.9401 -1.83894 7.80879 -0.384841 -0.662202
lowerback 2.93975 -0.717934 0.372282
upperback -5.97691 -0.972355 -0.44336
thorax -7.91646 -0.517879 -0.578719
lowerneck -12.4029 2.60001 9.37938
upperneck 28.5082 2.03909 -2.25039
head 11.4753 1.65256 -2.16388
rclavicle 6.59717e-015 4.17448e-015
rhumerus 31.5742 11.1274 -62.0149
rradius 65.688
rwrist 0.199875
rhand 30.7535 -35.2108
rfingers 7.12502
rthumb 54.3831 -53.7865
lclavicle 6.59717e-015 4.17448e-015
lhumerus 27.4546 -10.0399 56.8299
lradius 79.7646
lwrist -9.05657
lhand 35.8611 25.6352
lfingers 7.12502
lthumb 58.8848 40.5352
rfemur -26.2026 -5.20469 16.6119
rtibia 49.6817
rfoot -27.8615 -8.92463
rtoes -12.9886
lfemur -27.3811 1.3411 -16.912
ltibia 49.8457
lfoot -25.2421 9.51028
ltoes -12.7468
256
root -0.105539 14.9388 -1.83825 7.79813 -0.400602 -0.678576
lowerback 2.95429 -0.71176 0.411633
upperback -5.96524 -0.960941 -0.438712
thorax -7.91283 -0.514454 -0.596885
lowerneck -12.4711 2.50755 9.31757
upperneck 28.4307 1.91037 -2.23981
head 11.4485 1.58649 -2.16593
rclavicle -1.717e-014 1.78906e-015
rhumerus 31.5862 11.1163 -62.0287
rradius 65.6778
rwrist 0.219657
rhand 30.6936 -35.1481
rfingers 7.12502
rthumb 54.3294 -53.7609
lclavicle -1.717e-014 1.78906e-015
lhumerus 27.4724 -10.0509 56.8173
lradius 79.769
lwrist -9.0468
lhand 35.8715 25.6578
lfingers 7.12502
lthumb 58.8938 40.5492
rfemur -26.1983 -5.2044 16.6275
rtibia 49.6992
rfoot -27.8687 -8.92508
rtoes -13.0082
lfemur -27.3781 1.34362 -16.8978
ltibia 49.8764
lfoot -25.2421 9.51496
ltoes -12.7593
257
root -0.104802 14.9386 -1.83703 7.80501 -0.42038 -0.68187
lowerback 2.94346 -0.710293 0.42664
upperback -5.9731 -0.957365 -0.429587
thorax -7.91502 -0.513329 -0.596146
lowerneck -12.4285 2.40675 9.25285
upperneck 28.3139 1.79019 -2.25403
head 11.3846 1.52037 -2.17561
rclavicle -2.73329e-016 -1.17283e-014
rhumerus 31.5821 11.1511 -62.0378
rradius 65.6509
rwrist 0.219643
rhand 30.7039 -35.1562
rfingers 7.12502
rthumb 54.3387 -53.7627
lclavicle -2.73329e-016 -1.17283e-014
lhumerus 27.4377 -10.0712 56.7991
lradius 79.7762
lwrist -9.01523
lhand 35.7859 25.6863
lfingers 7.12502
lthumb 58.8197 40.6487
rfemur -26.213 -5.19447 16.627
rtibia 49.7146
rfoot -27.8855 -8.92078
rtoes -13.0457
lfemur -27.3879 1.35207 -16.8987
ltibia 49.9015
lfoot -25.2535 9.52603
ltoes -12.7622
258
root -0.103469 14.9367 -1.83678 7.79612 -0.420254 -0.686996
lowerback 2.96005 -0.711464 0.440874
upperback -5.95768 -0.956955 -0.416516
thorax -7.90807 -0.513463 -0.590328
lowerneck -12.4525 2.31437 9.17752
upperneck 28.1985 1.67438 -2.25719
head 11.3351 1.45623 -2.17833
rclavicle -6.43565e-015 -1.0138e-014
rhumerus 31.6074 11.18 -61.946
rradius 65.699
rwrist 0.133934
rhand 30.6114 -35.1504
rfingers 7.12502
rthumb 54.2558 -53.814
lclavicle -6.43565e-015 -1.0138e-014
lhumerus 27.4554 -10.0625 56.8166
lradius 79.7547
lwrist -9.06083
lhand 35.7755 25.6526
lfingers 7.12502
lthumb 58.8107 40.6236
rfemur -26.2115 -5.22109 16.626
rtibia 49.7368
rfoot -27.8939 -8.90105
rtoes -13.0452
lfemur -27.3873 1.35181 -16.8978
ltibia 49.931
lfoot -25.2605 9.52375
ltoes -12.7648
259
root -0.102369 14.9367 -1.83669 7.80379 -0.442432 -0.665342
lowerback 2.96001 -0.708235 0.431419
upperback -5.95757 -0.952996 -0.412366
thorax -7.90761 -0.510797 -0.581066
lowerneck -12.4006 2.22134 9.11921
upperneck 28.0318 1.56962 -2.28638
head 11.2519 1.39472 -2.19166
rclavicle 8.53532e-015 -3.97569e-016
rhumerus 31.6268 11.1567 -62.0231
rradius 65.6418
rwrist 0.186539
rhand 30.6071 -35.1429
rfingers 7.12502
rthumb 54.252 -53.8091
lclavicle 8.53532e-015 -3.97569e-016
lhumerus 27.438 -10.0717 56.8076
lradius 79.7721
lwrist -9.05663
lhand 35.7458 25.6592
lfingers 7.12502
lthumb 58.785 40.6548
rfemur -26.2415 -5.2216 16.6004
rtibia 49.7566
rfoot -27.8733 -8.9047
rtoes -13.161
lfemur -27.4033 1.34784 -16.9288
ltibia 49.9484
lfoot -25.2545 9.5606
ltoes -12.8486
260
root -0.101214 14.9352 -1.83635 7.80881 -0.459372 -0.664357
lowerback 2.95796 -0.708806 0.447471
upperback -5.95344 -0.952307 -0.407289
thorax -7.90212 -0.511245 -0.584844
lowerneck -12.3136 2.1227 9.03541
upperneck 27.8416 1.46035 -2.29292
head 11.1523 1.33075 -2.19251
rclavicle -5.86415e-015 9.14409e-015
rhumerus 31.6349 11.161 -62.04
rradius 65.6439
rwrist 0.170147
rhand 30.6329 -35.1592
rfingers 7.12502
rthumb 54.2751 -53.8095
lclavicle -5.86415e-015 9.14409e-015
lhumerus 27.4393 -10.072 56.7785
lradius 79.765
lwrist -9.06205
lhand 35.727 25.6037
lfingers 7.12502
lthumb 58.7687 40.6147
rfemur -26.2615 -5.22341 16.5948
rtibia 49.7829
rfoot -27.8867 -8.90176
rtoes -13.1868
lfemur -27.415 1.34658 -16.9334
ltibia 49.9697
lfoot -25.2701 9.55887
ltoes -12.7622
261
root -0.0998337 14.935 -1.83466 7.80158 -0.456507 -0.664736
lowerback 2.96297 -0.71164 0.472039
upperback -5.94732 -0.954209 -0.404776
thorax -7.89888 -0.513564 -0.595753
lowerneck -12.3038 2.037 8.99917
upperneck 27.7141 1.36061 -2.33807
head 11.0939 1.27276 -2.2147
rclavicle -1.00138e-014 5.56597e-015
rhumerus 31.6387 11.1622 -62.0478
rradius 65.6417
rwrist 0.148698
rhand 30.5015 -35.1141
rfingers 7.12502
rthumb 54.1572 -53.8452
lclavicle -1.00138e-014 5.56597e-015
lhumerus 27.4579 -10.0903 56.7469
lradius 79.7616
lwrist -9.0845
lhand 35.6348 25.6107
lfingers 7.12502
lthumb 58.6888 40.6975
rfemur -26.2516 -5.25162 16.5894
rtibia 49.8043
rfoot -27.8971 -8.88415
rtoes -13.2021
lfemur -27.4036 1.32125 -16.9366
ltibia 49.9868
lfoot -25.2815 9.57886
ltoes -12.7916
262
root -0.0994134 14.9336 -1.83483 7.81555 -0.499852 -0.65477
lowerback 2.95218 -0.699057 0.462475
upperback -5.92963 -0.937828 -0.403219
thorax -7.87297 -0.504775 -0.590608
lowerneck -12.3745 1.95197 8.94163
upperneck 27.6569 1.25245 -2.36341
head 11.0776 1.21253 -2.2277
rclavicle -6.4605e-015 9.93923e-015
rhumerus 31.6867 11.1307 -62.0589
rradius 65.6429
rwrist 0.13719
rhand 30.5284 -35.0858
rfingers 7.12502
rthumb 54.1814 -53.8004
lclavicle -6.4605e-015 9.93923e-015
lhumerus 27.5116 -10.0689 56.7371
lradius 79.7487
lwrist -9.10555
lhand 35.661 25.5791
lfingers 7.12502
lthumb 58.7115 40.6445
rfemur -26.298 -5.2235 16.5769
rtibia 49.834
rfoot -27.9045 -8.89266
rtoes -13.2488
lfemur -27.4293 1.34944 -16.9534
ltibia 50.0084
lfoot -25.292 9.60263
ltoes -12.8246
263
root -0.098713 14.9316 -1.83461 7.8146 -0.507313 -0.646568
lowerback 2.9519 -0.705451 0.45902
upperback -5.93245 -0.945833 -0.390773
thorax -7.87567 -0.508089 -0.574815
lowerneck -12.4327 1.89301 8.93835
upperneck 27.6691 1.18991 -2.4603
head 11.089 1.17193 -2.27114
rclavicle 6.59717e-015 -3.57812e-015
rhumerus 31.6645 11.1851 -62.0005
rradius 65.7132
rwrist 0.0429977
rhand 30.4559 -35.0751
rfingers 7.12502
rthumb 54.1163 -53.8342
lclavicle 6.59717e-015 -3.57812e-015
lhumerus 27.4602 -10.0538 56.7395
lradius 79.7481
lwrist -9.12572
lhand 35.6003 25.5104
lfingers 7.12502
lthumb 58.6589 40.6255
rfemur -26.3167 -5.23073 16.5655
rtibia 49.863
rfoot -27.9148 -8.89676
rtoes -13.23
lfemur -27.4308 1.34503 -16.9662
ltibia 50.0346
lfoot -25.3055 9.61905
ltoes -12.8488
264
root -0.0979095 14.9312 -1.83451 7.81572 -0.526175 -0.636093
lowerback 2.95309 -0.695636 0.459243
upperback -5.92205 -0.933106 -0.398376
thorax -7.86508 -0.502054 -0.584213
lowerneck -12.3814 1.79398 8.83054
upperneck 27.5673 1.06584 -2.41079
head 11.0299 1.10759 -2.24969
rclavicle 8.49804e-015 -1.05356e-014
rhumerus 31.664 11.1481 -62.0171
rradius 65.7154
rwrist 0.0235758
rhand 30.4144 -35.0814
rfingers 7.12502
rthumb 54.0791 -53.8658
lclavicle 8.49804e-015 -1.05356e-014
lhumerus 27.4909 -10.0613 56.7334
lradius 79.7399
lwrist -9.14712
lhand 35.5558 25.464
lfingers 7.12502
lthumb 58.6203 40.6155
rfemur -26.3348 -5.22262 16.55
rtibia 49.8982
rfoot -27.936 -8.88806
rtoes -13.1966
lfemur -27.4442 1.34684 -16.9814
ltibia 50.0607
lfoot -25.3228 9.63582
ltoes -12.9246
265
root -0.0974372 14.9291 -1.83474 7.80825 -0.559629 -0.638121
lowerback 2.95454 -0.702711 0.457369
upperback -5.90978 -0.941513 -0.380479
thorax -7.85242 -0.505408 -0.56362
lowerneck -12.3461 1.73674 8.72944
upperneck 27.4901 1.00721 -2.3932
head 10.988 1.07046 -2.23278
rclavicle -2.31087e-015 2.98177e-015
rhumerus 31.7236 11.1568 -62.089
rradius 65.6565
rwrist 0.0824477
rhand 30.4241 -35.0529
rfingers 7.12502
rthumb 54.0879 -53.8314
lclavicle -2.31087e-015 2.98177e-015
lhumerus 27.4856 -10.0095 56.7256
lradius 79.7539
lwrist -9.14403
lhand 35.504 25.5184
lfingers 7.12502
lthumb 58.5754 40.712
rfemur -26.3563 -5.20351 16.55
rtibia 49.9334
rfoot -27.9304 -8.8959
rtoes -13.2594
lfemur -27.4397 1.36672 -16.9812
ltibia 50.0962
lfoot -25.3464 9.62991
ltoes -12.8437
266
root -0.0965912 14.928 -1.83426 7.81293 -0.570688 -0.633845
lowerback 2.9459 -0.70825 0.459042
upperback -5.90283 -0.948263 -0.371732
thorax -7.83981 -0.508497 -0.554872
lowerneck -12.4379 1.70089 8.74878
upperneck 27.5068 0.968939 -2.49023
head 11.0097 1.04329 -2.27685
rclavicle 6.00081e-015 -9.54166e-015
rhumerus 31.7256 11.1763 -62.0764
rradius 65.6664
rwrist 0.0639826
rhand 30.4307 -35.0186
rfingers 7.12502
rthumb 54.0938 -53.793
lclavicle 6.00081e-015 -9.54166e-015
lhumerus 27.4933 -9.97375 56.7237
lradius 79.7567
lwrist -9.1807
lhand 35.5023 25.4595
lfingers 7.12502
lthumb 58.5739 40.6545
rfemur -26.3757 -5.19813 16.539
rtibia 49.9647
rfoot -27.9651 -8.88992
rtoes -13.1949
lfemur -27.4551 1.36831 -16.9904
ltibia 50.1265
lfoot -25.357 9.64352
ltoes -12.8743
